<svg width="32" height="32" viewBox="0 0 32 32" fill="none" xmlns="http://www.w3.org/2000/svg">
<path d="M29.7674 16C29.7674 23.6035 23.6035 29.7674 16 29.7674V32C24.8366 32 32 24.8366 32 16H29.7674ZM16 29.7674C8.39646 29.7674 2.23256 23.6035 2.23256 16H0C0 24.8366 7.16345 32 16 32V29.7674ZM2.23256 16C2.23256 8.39646 8.39646 2.23256 16 2.23256V0C7.16345 0 0 7.16345 0 16H2.23256ZM21.2093 19.3488C16.4828 19.3488 12.6512 15.5172 12.6512 10.7907H10.4186C10.4186 16.7503 15.2497 21.5814 21.2093 21.5814V19.3488ZM28.54 15.2097C27.0396 17.6927 24.3173 19.3488 21.2093 19.3488V21.5814C25.131 21.5814 28.5629 19.4886 30.4509 16.3642L28.54 15.2097ZM12.6512 10.7907C12.6512 7.68271 14.3073 4.96045 16.7903 3.45997L15.6358 1.54917C12.5114 3.4371 10.4186 6.86897 10.4186 10.7907H12.6512ZM16 2.23256C15.8683 2.23256 15.7138 2.17314 15.6017 2.05645C15.5068 1.95761 15.4847 1.8641 15.4795 1.82628C15.4733 1.7799 15.4764 1.6455 15.6358 1.54917L16.7903 3.45997C17.5393 3.00748 17.7801 2.17895 17.692 1.52747C17.6006 0.850247 17.0666 0 16 0V2.23256ZM30.4509 16.3642C30.3545 16.5236 30.2201 16.5267 30.1738 16.5205C30.136 16.5153 30.0423 16.4932 29.9435 16.3983C29.8268 16.2862 29.7674 16.1317 29.7674 16H32C32 14.9334 31.1497 14.3994 30.4725 14.308C29.821 14.2199 28.9924 14.4607 28.54 15.2097L30.4509 16.3642Z" fill="#121214"/>
</svg>
